<mxfile host="Electron" modified="2023-11-18T16:15:17.971Z" agent="Mozilla/5.0 (Windows NT 10.0; Win64; x64) AppleWebKit/537.36 (KHTML, like Gecko) draw.io/22.1.2 Chrome/114.0.5735.289 Electron/25.9.4 Safari/537.36" etag="WmkOyo3i-T41bKaoUvvD" version="22.1.2" type="device">
  <diagram name="第 1 页" id="GbJP6jTTrE4B4Lx9TzEP">
    <mxGraphModel dx="1235" dy="1900" grid="1" gridSize="10" guides="1" tooltips="1" connect="1" arrows="1" fold="1" page="1" pageScale="1" pageWidth="827" pageHeight="1169" math="0" shadow="0">
      <root>
        <mxCell id="0" />
        <mxCell id="1" parent="0" />
        <mxCell id="DbjYG6Qls44x-_L-Lnii-53" value="" style="rounded=0;whiteSpace=wrap;html=1;" vertex="1" parent="1">
          <mxGeometry x="100" y="-50" width="660" height="600" as="geometry" />
        </mxCell>
        <mxCell id="DbjYG6Qls44x-_L-Lnii-52" style="edgeStyle=orthogonalEdgeStyle;rounded=0;orthogonalLoop=1;jettySize=auto;html=1;exitX=0.75;exitY=1;exitDx=0;exitDy=0;entryX=0.75;entryY=0;entryDx=0;entryDy=0;" edge="1" parent="1" source="DbjYG6Qls44x-_L-Lnii-1" target="DbjYG6Qls44x-_L-Lnii-2">
          <mxGeometry relative="1" as="geometry" />
        </mxCell>
        <mxCell id="DbjYG6Qls44x-_L-Lnii-1" value="&lt;font style=&quot;font-size: 20px;&quot;&gt;Start&lt;/font&gt;" style="rounded=1;whiteSpace=wrap;html=1;" vertex="1" parent="1">
          <mxGeometry x="160" y="200" width="120" height="60" as="geometry" />
        </mxCell>
        <mxCell id="DbjYG6Qls44x-_L-Lnii-16" style="edgeStyle=orthogonalEdgeStyle;rounded=0;orthogonalLoop=1;jettySize=auto;html=1;exitX=0.5;exitY=1;exitDx=0;exitDy=0;entryX=0.5;entryY=0;entryDx=0;entryDy=0;" edge="1" parent="1" source="DbjYG6Qls44x-_L-Lnii-2" target="DbjYG6Qls44x-_L-Lnii-3">
          <mxGeometry relative="1" as="geometry" />
        </mxCell>
        <mxCell id="DbjYG6Qls44x-_L-Lnii-36" style="edgeStyle=orthogonalEdgeStyle;rounded=0;orthogonalLoop=1;jettySize=auto;html=1;exitX=0.25;exitY=0;exitDx=0;exitDy=0;entryX=0.25;entryY=1;entryDx=0;entryDy=0;" edge="1" parent="1" source="DbjYG6Qls44x-_L-Lnii-2" target="DbjYG6Qls44x-_L-Lnii-1">
          <mxGeometry relative="1" as="geometry" />
        </mxCell>
        <mxCell id="DbjYG6Qls44x-_L-Lnii-2" value="&lt;span style=&quot;font-size: 20px;&quot;&gt;one_1&lt;/span&gt;" style="rounded=1;whiteSpace=wrap;html=1;" vertex="1" parent="1">
          <mxGeometry x="160" y="320" width="120" height="60" as="geometry" />
        </mxCell>
        <mxCell id="DbjYG6Qls44x-_L-Lnii-18" style="edgeStyle=orthogonalEdgeStyle;rounded=0;orthogonalLoop=1;jettySize=auto;html=1;exitX=1;exitY=0.5;exitDx=0;exitDy=0;entryX=0;entryY=0.5;entryDx=0;entryDy=0;" edge="1" parent="1" source="DbjYG6Qls44x-_L-Lnii-3" target="DbjYG6Qls44x-_L-Lnii-4">
          <mxGeometry relative="1" as="geometry" />
        </mxCell>
        <mxCell id="DbjYG6Qls44x-_L-Lnii-38" style="edgeStyle=orthogonalEdgeStyle;rounded=0;orthogonalLoop=1;jettySize=auto;html=1;exitX=0;exitY=0.5;exitDx=0;exitDy=0;entryX=0;entryY=0.75;entryDx=0;entryDy=0;" edge="1" parent="1" source="DbjYG6Qls44x-_L-Lnii-3" target="DbjYG6Qls44x-_L-Lnii-1">
          <mxGeometry relative="1" as="geometry" />
        </mxCell>
        <mxCell id="DbjYG6Qls44x-_L-Lnii-3" value="&lt;span style=&quot;font-size: 20px;&quot;&gt;two_11&lt;/span&gt;" style="rounded=1;whiteSpace=wrap;html=1;" vertex="1" parent="1">
          <mxGeometry x="160" y="440" width="120" height="60" as="geometry" />
        </mxCell>
        <mxCell id="DbjYG6Qls44x-_L-Lnii-20" style="edgeStyle=orthogonalEdgeStyle;rounded=0;orthogonalLoop=1;jettySize=auto;html=1;exitX=0.5;exitY=0;exitDx=0;exitDy=0;entryX=0.5;entryY=1;entryDx=0;entryDy=0;" edge="1" parent="1" source="DbjYG6Qls44x-_L-Lnii-4" target="DbjYG6Qls44x-_L-Lnii-6">
          <mxGeometry relative="1" as="geometry" />
        </mxCell>
        <mxCell id="DbjYG6Qls44x-_L-Lnii-4" value="&lt;span style=&quot;font-size: 20px;&quot;&gt;three_111&lt;/span&gt;" style="rounded=1;whiteSpace=wrap;html=1;" vertex="1" parent="1">
          <mxGeometry x="400" y="440" width="120" height="60" as="geometry" />
        </mxCell>
        <mxCell id="DbjYG6Qls44x-_L-Lnii-22" style="edgeStyle=orthogonalEdgeStyle;rounded=0;orthogonalLoop=1;jettySize=auto;html=1;exitX=0.5;exitY=0;exitDx=0;exitDy=0;entryX=0.5;entryY=1;entryDx=0;entryDy=0;" edge="1" parent="1" source="DbjYG6Qls44x-_L-Lnii-6" target="DbjYG6Qls44x-_L-Lnii-7">
          <mxGeometry relative="1" as="geometry" />
        </mxCell>
        <mxCell id="DbjYG6Qls44x-_L-Lnii-42" style="edgeStyle=orthogonalEdgeStyle;rounded=0;orthogonalLoop=1;jettySize=auto;html=1;exitX=0;exitY=0.5;exitDx=0;exitDy=0;entryX=1;entryY=0.5;entryDx=0;entryDy=0;" edge="1" parent="1" source="DbjYG6Qls44x-_L-Lnii-6" target="DbjYG6Qls44x-_L-Lnii-2">
          <mxGeometry relative="1" as="geometry" />
        </mxCell>
        <mxCell id="DbjYG6Qls44x-_L-Lnii-6" value="&lt;span style=&quot;font-size: 20px;&quot;&gt;four_1110&lt;/span&gt;" style="rounded=1;whiteSpace=wrap;html=1;" vertex="1" parent="1">
          <mxGeometry x="400" y="320" width="120" height="60" as="geometry" />
        </mxCell>
        <mxCell id="DbjYG6Qls44x-_L-Lnii-44" style="edgeStyle=orthogonalEdgeStyle;rounded=0;orthogonalLoop=1;jettySize=auto;html=1;exitX=0;exitY=0.5;exitDx=0;exitDy=0;entryX=1;entryY=0.5;entryDx=0;entryDy=0;" edge="1" parent="1" source="DbjYG6Qls44x-_L-Lnii-7" target="DbjYG6Qls44x-_L-Lnii-1">
          <mxGeometry relative="1" as="geometry" />
        </mxCell>
        <mxCell id="DbjYG6Qls44x-_L-Lnii-48" style="edgeStyle=orthogonalEdgeStyle;rounded=0;orthogonalLoop=1;jettySize=auto;html=1;exitX=0.75;exitY=0;exitDx=0;exitDy=0;entryX=0.75;entryY=1;entryDx=0;entryDy=0;" edge="1" parent="1" source="DbjYG6Qls44x-_L-Lnii-7" target="DbjYG6Qls44x-_L-Lnii-8">
          <mxGeometry relative="1" as="geometry" />
        </mxCell>
        <mxCell id="DbjYG6Qls44x-_L-Lnii-7" value="&lt;span style=&quot;font-size: 20px;&quot;&gt;head_0&lt;/span&gt;" style="rounded=1;whiteSpace=wrap;html=1;" vertex="1" parent="1">
          <mxGeometry x="400" y="200" width="120" height="60" as="geometry" />
        </mxCell>
        <mxCell id="DbjYG6Qls44x-_L-Lnii-26" style="edgeStyle=orthogonalEdgeStyle;rounded=0;orthogonalLoop=1;jettySize=auto;html=1;exitX=0.5;exitY=0;exitDx=0;exitDy=0;entryX=0.5;entryY=1;entryDx=0;entryDy=0;" edge="1" parent="1" source="DbjYG6Qls44x-_L-Lnii-8" target="DbjYG6Qls44x-_L-Lnii-9">
          <mxGeometry relative="1" as="geometry" />
        </mxCell>
        <mxCell id="DbjYG6Qls44x-_L-Lnii-49" style="edgeStyle=orthogonalEdgeStyle;rounded=0;orthogonalLoop=1;jettySize=auto;html=1;exitX=0.25;exitY=1;exitDx=0;exitDy=0;entryX=0.25;entryY=0;entryDx=0;entryDy=0;" edge="1" parent="1" source="DbjYG6Qls44x-_L-Lnii-8" target="DbjYG6Qls44x-_L-Lnii-7">
          <mxGeometry relative="1" as="geometry" />
        </mxCell>
        <mxCell id="DbjYG6Qls44x-_L-Lnii-8" value="&lt;span style=&quot;font-size: 20px;&quot;&gt;head_01&lt;/span&gt;" style="rounded=1;whiteSpace=wrap;html=1;" vertex="1" parent="1">
          <mxGeometry x="400" y="80" width="120" height="60" as="geometry" />
        </mxCell>
        <mxCell id="DbjYG6Qls44x-_L-Lnii-28" style="edgeStyle=orthogonalEdgeStyle;rounded=0;orthogonalLoop=1;jettySize=auto;html=1;exitX=1;exitY=0.5;exitDx=0;exitDy=0;entryX=0.5;entryY=0;entryDx=0;entryDy=0;" edge="1" parent="1" source="DbjYG6Qls44x-_L-Lnii-9" target="DbjYG6Qls44x-_L-Lnii-10">
          <mxGeometry relative="1" as="geometry" />
        </mxCell>
        <mxCell id="DbjYG6Qls44x-_L-Lnii-45" style="edgeStyle=orthogonalEdgeStyle;rounded=0;orthogonalLoop=1;jettySize=auto;html=1;exitX=0;exitY=0.5;exitDx=0;exitDy=0;entryX=0.5;entryY=0;entryDx=0;entryDy=0;" edge="1" parent="1" source="DbjYG6Qls44x-_L-Lnii-9" target="DbjYG6Qls44x-_L-Lnii-1">
          <mxGeometry relative="1" as="geometry" />
        </mxCell>
        <mxCell id="DbjYG6Qls44x-_L-Lnii-9" value="&lt;span style=&quot;font-size: 20px;&quot;&gt;head_body_1&lt;/span&gt;" style="rounded=1;whiteSpace=wrap;html=1;" vertex="1" parent="1">
          <mxGeometry x="390" y="-40" width="140" height="60" as="geometry" />
        </mxCell>
        <mxCell id="DbjYG6Qls44x-_L-Lnii-30" style="edgeStyle=orthogonalEdgeStyle;rounded=0;orthogonalLoop=1;jettySize=auto;html=1;exitX=0;exitY=0.5;exitDx=0;exitDy=0;entryX=1;entryY=0.5;entryDx=0;entryDy=0;" edge="1" parent="1" source="DbjYG6Qls44x-_L-Lnii-10" target="DbjYG6Qls44x-_L-Lnii-6">
          <mxGeometry relative="1" as="geometry" />
        </mxCell>
        <mxCell id="DbjYG6Qls44x-_L-Lnii-32" style="edgeStyle=orthogonalEdgeStyle;rounded=0;orthogonalLoop=1;jettySize=auto;html=1;exitX=0.5;exitY=1;exitDx=0;exitDy=0;entryX=1;entryY=0.5;entryDx=0;entryDy=0;" edge="1" parent="1" source="DbjYG6Qls44x-_L-Lnii-10" target="DbjYG6Qls44x-_L-Lnii-4">
          <mxGeometry relative="1" as="geometry" />
        </mxCell>
        <mxCell id="DbjYG6Qls44x-_L-Lnii-10" value="&lt;span style=&quot;font-size: 20px;&quot;&gt;head_body_11&lt;/span&gt;" style="rounded=1;whiteSpace=wrap;html=1;" vertex="1" parent="1">
          <mxGeometry x="600" y="200" width="140" height="60" as="geometry" />
        </mxCell>
        <mxCell id="DbjYG6Qls44x-_L-Lnii-15" value="&lt;font style=&quot;font-size: 17px;&quot;&gt;1/0&lt;/font&gt;" style="text;html=1;strokeColor=none;fillColor=none;align=center;verticalAlign=middle;whiteSpace=wrap;rounded=0;" vertex="1" parent="1">
          <mxGeometry x="250" y="280" width="30" height="20" as="geometry" />
        </mxCell>
        <mxCell id="DbjYG6Qls44x-_L-Lnii-17" value="&lt;font style=&quot;font-size: 17px;&quot;&gt;1/0&lt;/font&gt;" style="text;html=1;strokeColor=none;fillColor=none;align=center;verticalAlign=middle;whiteSpace=wrap;rounded=0;" vertex="1" parent="1">
          <mxGeometry x="220" y="400" width="30" height="20" as="geometry" />
        </mxCell>
        <mxCell id="DbjYG6Qls44x-_L-Lnii-19" value="&lt;font style=&quot;font-size: 17px;&quot;&gt;1/0&lt;/font&gt;" style="text;html=1;strokeColor=none;fillColor=none;align=center;verticalAlign=middle;whiteSpace=wrap;rounded=0;" vertex="1" parent="1">
          <mxGeometry x="330" y="470" width="30" height="20" as="geometry" />
        </mxCell>
        <mxCell id="DbjYG6Qls44x-_L-Lnii-21" value="&lt;font style=&quot;font-size: 17px;&quot;&gt;0/0&lt;/font&gt;" style="text;html=1;strokeColor=none;fillColor=none;align=center;verticalAlign=middle;whiteSpace=wrap;rounded=0;" vertex="1" parent="1">
          <mxGeometry x="460" y="400" width="30" height="20" as="geometry" />
        </mxCell>
        <mxCell id="DbjYG6Qls44x-_L-Lnii-23" value="&lt;font style=&quot;font-size: 17px;&quot;&gt;0/0&lt;/font&gt;" style="text;html=1;strokeColor=none;fillColor=none;align=center;verticalAlign=middle;whiteSpace=wrap;rounded=0;" vertex="1" parent="1">
          <mxGeometry x="460" y="280" width="30" height="20" as="geometry" />
        </mxCell>
        <mxCell id="DbjYG6Qls44x-_L-Lnii-25" value="&lt;font style=&quot;font-size: 17px;&quot;&gt;1/0&lt;/font&gt;" style="text;html=1;strokeColor=none;fillColor=none;align=center;verticalAlign=middle;whiteSpace=wrap;rounded=0;" vertex="1" parent="1">
          <mxGeometry x="490" y="160" width="30" height="20" as="geometry" />
        </mxCell>
        <mxCell id="DbjYG6Qls44x-_L-Lnii-27" value="&lt;font style=&quot;font-size: 17px;&quot;&gt;1/0&lt;/font&gt;" style="text;html=1;strokeColor=none;fillColor=none;align=center;verticalAlign=middle;whiteSpace=wrap;rounded=0;" vertex="1" parent="1">
          <mxGeometry x="460" y="40" width="30" height="20" as="geometry" />
        </mxCell>
        <mxCell id="DbjYG6Qls44x-_L-Lnii-29" value="&lt;font style=&quot;font-size: 17px;&quot;&gt;1/1&lt;/font&gt;" style="text;html=1;strokeColor=none;fillColor=none;align=center;verticalAlign=middle;whiteSpace=wrap;rounded=0;" vertex="1" parent="1">
          <mxGeometry x="670" y="80" width="30" height="20" as="geometry" />
        </mxCell>
        <mxCell id="DbjYG6Qls44x-_L-Lnii-31" value="&lt;font style=&quot;font-size: 17px;&quot;&gt;0/0&lt;/font&gt;" style="text;html=1;strokeColor=none;fillColor=none;align=center;verticalAlign=middle;whiteSpace=wrap;rounded=0;" vertex="1" parent="1">
          <mxGeometry x="560" y="280" width="30" height="20" as="geometry" />
        </mxCell>
        <mxCell id="DbjYG6Qls44x-_L-Lnii-33" value="&lt;font style=&quot;font-size: 17px;&quot;&gt;1/0&lt;/font&gt;" style="text;html=1;strokeColor=none;fillColor=none;align=center;verticalAlign=middle;whiteSpace=wrap;rounded=0;" vertex="1" parent="1">
          <mxGeometry x="670" y="360" width="30" height="20" as="geometry" />
        </mxCell>
        <mxCell id="DbjYG6Qls44x-_L-Lnii-34" style="edgeStyle=orthogonalEdgeStyle;rounded=0;orthogonalLoop=1;jettySize=auto;html=1;exitX=0.25;exitY=1;exitDx=0;exitDy=0;entryX=0.75;entryY=1;entryDx=0;entryDy=0;" edge="1" parent="1" source="DbjYG6Qls44x-_L-Lnii-4" target="DbjYG6Qls44x-_L-Lnii-4">
          <mxGeometry relative="1" as="geometry" />
        </mxCell>
        <mxCell id="DbjYG6Qls44x-_L-Lnii-35" value="&lt;font style=&quot;font-size: 17px;&quot;&gt;1/0&lt;/font&gt;" style="text;html=1;strokeColor=none;fillColor=none;align=center;verticalAlign=middle;whiteSpace=wrap;rounded=0;" vertex="1" parent="1">
          <mxGeometry x="445" y="520" width="30" height="20" as="geometry" />
        </mxCell>
        <mxCell id="DbjYG6Qls44x-_L-Lnii-37" value="&lt;font style=&quot;font-size: 17px;&quot;&gt;0/0&lt;/font&gt;" style="text;html=1;strokeColor=none;fillColor=none;align=center;verticalAlign=middle;whiteSpace=wrap;rounded=0;" vertex="1" parent="1">
          <mxGeometry x="160" y="280" width="30" height="20" as="geometry" />
        </mxCell>
        <mxCell id="DbjYG6Qls44x-_L-Lnii-39" value="&lt;font style=&quot;font-size: 17px;&quot;&gt;0/0&lt;/font&gt;" style="text;html=1;strokeColor=none;fillColor=none;align=center;verticalAlign=middle;whiteSpace=wrap;rounded=0;" vertex="1" parent="1">
          <mxGeometry x="110" y="350" width="30" height="20" as="geometry" />
        </mxCell>
        <mxCell id="DbjYG6Qls44x-_L-Lnii-43" value="&lt;font style=&quot;font-size: 17px;&quot;&gt;1/0&lt;/font&gt;" style="text;html=1;strokeColor=none;fillColor=none;align=center;verticalAlign=middle;whiteSpace=wrap;rounded=0;" vertex="1" parent="1">
          <mxGeometry x="330" y="350" width="30" height="20" as="geometry" />
        </mxCell>
        <mxCell id="DbjYG6Qls44x-_L-Lnii-46" value="&lt;font style=&quot;font-size: 17px;&quot;&gt;0/0&lt;/font&gt;" style="text;html=1;strokeColor=none;fillColor=none;align=center;verticalAlign=middle;whiteSpace=wrap;rounded=0;" vertex="1" parent="1">
          <mxGeometry x="330" y="230" width="30" height="20" as="geometry" />
        </mxCell>
        <mxCell id="DbjYG6Qls44x-_L-Lnii-47" value="&lt;font style=&quot;font-size: 17px;&quot;&gt;0/0&lt;/font&gt;" style="text;html=1;strokeColor=none;fillColor=none;align=center;verticalAlign=middle;whiteSpace=wrap;rounded=0;" vertex="1" parent="1">
          <mxGeometry x="190" y="80" width="30" height="20" as="geometry" />
        </mxCell>
        <mxCell id="DbjYG6Qls44x-_L-Lnii-50" value="&lt;font style=&quot;font-size: 17px;&quot;&gt;0/0&lt;/font&gt;" style="text;html=1;strokeColor=none;fillColor=none;align=center;verticalAlign=middle;whiteSpace=wrap;rounded=0;" vertex="1" parent="1">
          <mxGeometry x="400" y="160" width="30" height="20" as="geometry" />
        </mxCell>
      </root>
    </mxGraphModel>
  </diagram>
</mxfile>
